<?xml version="1.0" encoding="utf-8"?>
<svg viewBox="-1.008 -0.322 250 250" xmlns="http://www.w3.org/2000/svg">
  <defs>
    <linearGradient id="gradientbwHE75swu" gradientUnits="userSpaceOnUse" x1="434.75" y1="176.9" x2="192.47" y2="415.19">
      <stop style="stop-color: #0ad1c8;stop-opacity: 1" offset="0"/>
      <stop style="stop-color: #010000;stop-opacity: 1" offset="1"/>
    </linearGradient>
  </defs>
  <g transform="matrix(1, 0, 0, 1, -105.79744, -114.738068)">
    <g transform="matrix(1, 0, 0, 1, -84.190918, -56.623981)">
      <g>
        <g>
          <path d="M426.78 171.04C433.52 171.04 438.98 176.51 438.98 183.24C438.98 230.8 438.98 361.29 438.98 408.85C438.98 415.58 433.52 421.04 426.78 421.04C379.22 421.04 248.74 421.04 201.18 421.04C194.44 421.04 188.98 415.58 188.98 408.85C188.98 361.29 188.98 230.8 188.98 183.24C188.98 176.51 194.44 171.04 201.18 171.04C248.74 171.04 379.22 171.04 426.78 171.04Z" transform="matrix(1, 0, 0, 1, 0, 0)" opacity="1" fill="url(#gradientbwHE75swu)"/>
        </g>
        <g>
          <g>
            <path d="M278.85 298.77C282.85 301.25 284.09 306.5 281.62 310.5C272.06 325.95 247.87 365.08 238.31 380.53C235.83 384.53 230.58 385.77 226.58 383.3C223.15 381.18 220.11 379.29 216.68 377.17C212.67 374.7 211.44 369.45 213.91 365.44C223.47 349.99 247.66 310.87 257.22 295.41C259.69 291.41 264.94 290.17 268.95 292.65C272.38 294.77 275.42 296.65 278.85 298.77Z" transform="matrix(1, 0, 0, 1, 0, 0)" opacity="1" fill="#ffff00" fill-opacity="1"/>
          </g>
          <g>
            <path d="M330.34 330.58C334.38 333.08 335.63 338.37 333.13 342.41C331.25 345.44 330.15 347.23 328.27 350.26C325.78 354.3 320.48 355.55 316.45 353.05C302.72 344.56 268.84 323.61 255.11 315.12C251.08 312.63 249.83 307.33 252.32 303.29C254.2 300.26 255.3 298.48 257.18 295.44C259.67 291.41 264.97 290.16 269.01 292.65C282.73 301.14 316.61 322.09 330.34 330.58Z" transform="matrix(1, 0, 0, 1, 0, 0)" opacity="1" fill="#ffff00" fill-opacity="1"/>
          </g>
          <g>
            <path d="M371.13 264.83C375.31 267.41 376.61 272.9 374.02 277.09C364.06 293.2 338.85 333.96 328.88 350.08C326.3 354.26 320.81 355.56 316.62 352.97C313.26 350.89 310.74 349.33 307.38 347.25C303.19 344.66 301.9 339.17 304.49 334.99C314.45 318.88 339.66 278.11 349.62 262C352.21 257.81 357.7 256.52 361.88 259.11C365.25 261.19 367.77 262.75 371.13 264.83Z" transform="matrix(1, 0, 0, 1, 0, 0)" opacity="1" fill="#ffff00" fill-opacity="1"/>
          </g>
          <g>
            <path d="M356.42 255.92C361.81 255.99 366.12 260.42 366.04 265.8C366 269.14 366 269.38 365.95 272.71C365.88 278.1 361.45 282.41 356.07 282.33C346.27 282.2 326.62 281.94 316.82 281.81C311.44 281.74 307.13 277.31 307.2 271.92C307.25 268.59 307.25 268.35 307.29 265.02C307.37 259.63 311.79 255.32 317.18 255.39C326.98 255.53 346.62 255.79 356.42 255.92Z" transform="matrix(1, 0, 0, 1, 0, 0)" opacity="1" fill="#ffff00" fill-opacity="1"/>
          </g>
          <g>
            <path d="M374.79 317.79C377.26 322.57 383.14 324.45 387.93 321.98C390.89 320.45 391.11 320.34 394.07 318.81C398.86 316.34 400.73 310.46 398.26 305.67C393.77 296.96 384.75 279.5 380.26 270.79C377.79 266.01 371.9 264.13 367.12 266.6C364.16 268.13 363.94 268.24 360.98 269.77C356.19 272.24 354.31 278.12 356.78 282.91C361.28 291.62 370.29 309.08 374.79 317.79Z" transform="matrix(1, 0, 0, 1, 0, 0)" opacity="1" fill="#ffff00" fill-opacity="1"/>
          </g>
        </g>
        <g>
          <path d="M414.96 223.98C414.96 235.02 406 243.98 394.96 243.98C383.92 243.98 374.96 235.02 374.96 223.98C374.96 212.94 383.92 203.98 394.96 203.98C406 203.98 414.96 212.94 414.96 223.98Z" transform="matrix(1, 0, 0, 1, 0, 0)" opacity="1" fill="#ffff00" fill-opacity="1"/>
        </g>
      </g>
    </g>
  </g>
</svg>